<svg width="68" height="68" viewBox="0 0 68 68" fill="none" xmlns="http://www.w3.org/2000/svg">
<path fill-rule="evenodd" clip-rule="evenodd" d="M59.5 0C64.1944 0 68 3.80558 68 8.5V37.6977L65.1982 40.4724H59.122L59.1259 40.4752C59.037 40.4736 58.9479 40.4724 58.8586 40.4724C50.8536 40.4724 44.3644 46.9616 44.3644 54.9667C44.3644 60.695 47.6877 65.6465 52.5113 68H8.5C3.80558 68 0 64.1944 0 59.5V5.66667C0 2.53705 2.53705 9.12698e-08 5.66667 0H59.5ZM15.4522 13.0322C14.5164 13.0322 13.9837 14.1024 14.5479 14.849L29.7959 35.026C29.8378 35.0813 29.8856 35.1309 29.9359 35.1771V57.0391C29.9359 57.665 30.4433 58.1724 31.0693 58.1724H36.9219C37.5512 58.1724 38.0601 57.6596 38.0552 57.0302L37.882 35.0448C37.885 35.0409 37.889 35.0376 37.892 35.0337L53.4205 14.8567C53.994 14.1115 53.4632 13.0324 52.5229 13.0322H46.3029C45.9586 13.0323 45.633 13.189 45.418 13.4578L34.3984 27.231C34.1692 27.5172 33.7326 27.5137 33.508 27.2238L22.8653 13.4722C22.6507 13.1948 22.3195 13.0322 21.9688 13.0322H15.4522Z" fill="#4A3B8A"/>
<path d="M67.9893 54.9657C67.9893 59.6601 64.1837 63.4657 59.4893 63.4657C54.7949 63.4657 50.9893 59.6601 50.9893 54.9657C50.9893 50.2713 54.7949 46.4657 59.4893 46.4657C64.1837 46.4657 67.9893 50.2713 67.9893 54.9657Z" fill="#F56500"/>
<path d="M68 37.6389C68 39.2037 66.7315 40.4723 65.1667 40.4723C63.6019 40.4723 62.3333 39.2037 62.3333 37.6389C62.3333 36.0741 63.6019 34.8056 65.1667 34.8056C66.7315 34.8056 68 36.0741 68 37.6389Z" fill="#4A3B8A"/>
</svg>
