<svg width="69" height="69" viewBox="0 0 69 69" fill="none" xmlns="http://www.w3.org/2000/svg">
<path d="M29.9502 67.2556V63.1606H26.4663V68.2556H28.9502C29.5025 68.2556 29.9502 67.8079 29.9502 67.2556Z" fill="url(#paint0_linear_11_312)"/>
<path d="M38.0119 67.2556V63.1606H41.1644V68.2556H39.0119C38.4596 68.2556 38.0119 67.8079 38.0119 67.2556Z" fill="url(#paint1_linear_11_312)"/>
<path d="M53.2269 0.393509C61.5111 0.393588 68.2269 7.10929 68.2269 15.3935V38.0146L65.4437 40.7841H55.8401C47.9222 40.8248 41.5159 47.2854 41.5159 55.249C41.516 60.9309 44.7781 65.8462 49.5228 68.2119C49.0943 68.2393 48.6623 68.2558 48.2269 68.2558H38.0218V68.2539H39.6526L38.011 66.6543L37.8441 38.7705H37.8069C37.9283 38.6722 38.0393 38.5598 38.136 38.4335L52.2513 20.0097C53.2593 18.694 52.3217 16.7941 50.6644 16.7939H46.6722C46.0632 16.794 45.4871 17.0714 45.1077 17.5478L34.7718 30.5253C34.3673 31.0332 33.5938 31.027 33.1976 30.5126L23.2278 17.5732C22.8493 17.0818 22.2642 16.794 21.6439 16.7939H17.346C15.6966 16.7939 14.7558 18.6779 15.7474 19.996L29.6077 38.4199C29.7074 38.5524 29.824 38.6682 29.9505 38.7705V66.6767L28.3372 68.2558H15.6722C7.38799 68.2558 0.672308 61.54 0.67218 53.2558V10.3935C0.67218 4.87066 5.14933 0.393509 10.6722 0.393509H53.2269Z" fill="url(#paint2_linear_11_312)"/>
<path d="M66.3938 55.2487C66.3938 60.4021 62.2351 64.5797 57.1051 64.5797C51.975 64.5797 47.8163 60.4021 47.8163 55.2487C47.8163 50.0953 51.975 45.9176 57.1051 45.9176C62.2351 45.9176 66.3938 50.0953 66.3938 55.2487Z" fill="#4A3B8A"/>
<path d="M68.2267 37.9561C68.2267 39.5177 66.9665 40.7837 65.4119 40.7837C63.8574 40.7837 62.5972 39.5177 62.5972 37.9561C62.5972 36.3945 63.8574 35.1285 65.4119 35.1285C66.9665 35.1285 68.2267 36.3945 68.2267 37.9561Z" fill="url(#paint3_linear_11_312)"/>
<defs>
<linearGradient id="paint0_linear_11_312" x1="114.456" y1="34.3247" x2="482.29" y2="34.3247" gradientUnits="userSpaceOnUse">
<stop stop-color="#4A3B8A"/>
<stop offset="1" stop-color="#F56500"/>
</linearGradient>
<linearGradient id="paint1_linear_11_312" x1="158.192" y1="-15.323" x2="-568.646" y2="-17.0468" gradientUnits="userSpaceOnUse">
<stop stop-color="#4A3B8A"/>
<stop offset="1" stop-color="#F56500"/>
</linearGradient>
<linearGradient id="paint2_linear_11_312" x1="33.9747" y1="37.9561" x2="68.2267" y2="37.9561" gradientUnits="userSpaceOnUse">
<stop stop-color="#4A3B8A"/>
<stop offset="1" stop-color="#F56500"/>
</linearGradient>
<linearGradient id="paint3_linear_11_312" x1="33.9747" y1="37.9561" x2="68.2267" y2="37.9561" gradientUnits="userSpaceOnUse">
<stop stop-color="#4A3B8A"/>
<stop offset="1" stop-color="#F56500"/>
</linearGradient>
</defs>
</svg>
