<svg width="194" height="69" viewBox="0 0 194 69" fill="none" xmlns="http://www.w3.org/2000/svg">
<path d="M29.9502 67.2556V63.1606H26.4663V68.2556H28.9502C29.5025 68.2556 29.9502 67.8079 29.9502 67.2556Z" fill="#4A3B8A"/>
<path d="M38.0119 67.2556V63.1606H41.1644V68.2556H39.0119C38.4596 68.2556 38.0119 67.8079 38.0119 67.2556Z" fill="#4A3B8A"/>
<path d="M53.2269 0.393509C61.5111 0.393588 68.2269 7.10929 68.2269 15.3935V38.0146L65.4437 40.7841H55.8401C47.9222 40.8248 41.5159 47.2854 41.5159 55.249C41.516 60.9309 44.7781 65.8462 49.5228 68.2119C49.0943 68.2393 48.6623 68.2558 48.2269 68.2558H38.0218V68.2539H39.6526L38.011 66.6543L37.8441 38.7705H37.8069C37.9283 38.6722 38.0393 38.5598 38.136 38.4335L52.2513 20.0097C53.2593 18.694 52.3217 16.7941 50.6644 16.7939H46.6722C46.0632 16.794 45.4871 17.0714 45.1077 17.5478L34.7718 30.5253C34.3673 31.0332 33.5938 31.027 33.1976 30.5126L23.2278 17.5732C22.8493 17.0818 22.2642 16.794 21.6439 16.7939H17.346C15.6966 16.7939 14.7558 18.6779 15.7474 19.996L29.6077 38.4199C29.7074 38.5524 29.824 38.6682 29.9505 38.7705V66.6767L28.3372 68.2558H15.6722C7.38799 68.2558 0.672308 61.54 0.67218 53.2558V10.3935C0.67218 4.87066 5.14933 0.393509 10.6722 0.393509H53.2269Z" fill="#4A3B8A"/>
<path d="M66.3938 55.2487C66.3938 60.4021 62.2351 64.5797 57.1051 64.5797C51.975 64.5797 47.8163 60.4021 47.8163 55.2487C47.8163 50.0953 51.975 45.9176 57.1051 45.9176C62.2351 45.9176 66.3938 50.0953 66.3938 55.2487Z" fill="#F56500"/>
<path d="M68.2267 37.9561C68.2267 39.5177 66.9665 40.7837 65.4119 40.7837C63.8574 40.7837 62.5972 39.5177 62.5972 37.9561C62.5972 36.3945 63.8574 35.1285 65.4119 35.1285C66.9665 35.1285 68.2267 36.3945 68.2267 37.9561Z" fill="#4A3B8A"/>
<path d="M116.385 1.38151C115.414 2.97617 114.288 4.79617 113.005 6.8415C111.757 8.88684 110.474 10.9842 109.157 13.1335C107.84 15.2482 106.54 17.3455 105.257 19.4255C103.974 21.4708 102.848 23.3255 101.877 24.9895V39.3935H94.5971V24.9895C92.3437 21.0375 89.9517 17.1028 87.4211 13.1855C84.8904 9.26817 82.4811 5.33351 80.1931 1.38151H88.6691C90.2291 3.98151 91.8237 6.66817 93.4531 9.44151C95.0824 12.2148 96.6771 14.9015 98.2371 17.5015C98.9997 16.2882 99.7971 14.9882 100.629 13.6015C101.461 12.2148 102.293 10.8282 103.125 9.44151C103.957 8.02017 104.772 6.6335 105.569 5.28151C106.401 3.89484 107.181 2.59484 107.909 1.38151H116.385Z" fill="white"/>
<path d="M155.658 32.7375V39.4455H136.73C133.194 39.4455 130.126 38.9428 127.526 37.9375C124.961 36.8975 122.829 35.5108 121.13 33.7775C119.431 32.0095 118.166 29.9468 117.334 27.5895C116.537 25.2322 116.138 22.7188 116.138 20.0495C116.138 17.3802 116.641 14.8668 117.646 12.5095C118.686 10.1522 120.073 8.10684 121.806 6.3735C123.574 4.6055 125.619 3.21884 127.942 2.21351C130.299 1.1735 132.813 0.653503 135.482 0.653503C138.151 0.653503 140.665 1.1735 143.022 2.21351C145.379 3.21884 147.425 4.6055 149.158 6.3735C150.926 8.10684 152.313 10.1522 153.318 12.5095C154.358 14.8668 154.878 17.3802 154.878 20.0495C154.878 21.1935 154.739 22.3722 154.462 23.5855C154.219 24.7988 153.803 25.9775 153.214 27.1215C152.625 28.2655 151.862 29.3228 150.926 30.2935C150.025 31.2642 148.898 32.0788 147.546 32.7375H155.658ZM123.366 20.0495C123.366 21.7135 123.678 23.2908 124.302 24.7815C124.961 26.2722 125.827 27.5895 126.902 28.7335C128.011 29.8428 129.294 30.7268 130.75 31.3855C132.241 32.0442 133.818 32.3735 135.482 32.3735C137.146 32.3735 138.706 32.0442 140.162 31.3855C141.653 30.7268 142.935 29.8428 144.01 28.7335C145.119 27.5895 145.986 26.2722 146.61 24.7815C147.269 23.2908 147.598 21.7135 147.598 20.0495C147.598 18.3855 147.269 16.8082 146.61 15.3175C145.986 13.7922 145.119 12.4748 144.01 11.3655C142.935 10.2562 141.653 9.37217 140.162 8.7135C138.706 8.05484 137.146 7.72551 135.482 7.72551C133.818 7.72551 132.241 8.05484 130.75 8.7135C129.294 9.37217 128.011 10.2562 126.902 11.3655C125.827 12.4748 124.961 13.7922 124.302 15.3175C123.678 16.8082 123.366 18.3855 123.366 20.0495Z" fill="white"/>
<path d="M168.302 39.3935H161.074V1.3295H178.338C180.279 1.3295 182.047 1.65884 183.642 2.3175C185.271 2.9415 186.658 3.84284 187.802 5.02151C188.946 6.16551 189.83 7.55217 190.454 9.18151C191.112 10.7762 191.442 12.5268 191.442 14.4335C191.442 17.3108 190.714 19.8242 189.258 21.9735C187.836 24.1228 185.93 25.6655 183.538 26.6015C186.762 30.8308 189.934 35.0948 193.054 39.3935H184.37C182.844 37.4175 181.354 35.4242 179.898 33.4135C178.442 31.4028 176.986 29.3575 175.53 27.2775H168.302V39.3935ZM168.302 20.8295H178.338C178.996 20.8295 179.672 20.7082 180.366 20.4655C181.094 20.1882 181.735 19.7895 182.29 19.2695C182.844 18.7148 183.295 18.0388 183.642 17.2415C184.023 16.4442 184.214 15.5082 184.214 14.4335C184.214 13.8788 184.144 13.2202 184.006 12.4575C183.867 11.6948 183.59 10.9668 183.174 10.2735C182.758 9.58017 182.168 8.99084 181.406 8.5055C180.643 8.02017 179.62 7.7775 178.338 7.7775H168.302V20.8295Z" fill="white"/>
<path d="M79.7365 62.8435L81.2565 60.6035C81.9898 61.1101 82.7431 61.5501 83.5165 61.9235C84.3031 62.2835 85.1231 62.4635 85.9765 62.4635C86.4298 62.4635 86.8298 62.4101 87.1765 62.3035C87.5231 62.1835 87.8165 62.0368 88.0565 61.8635C88.2965 61.6768 88.4765 61.4701 88.5965 61.2435C88.7165 61.0035 88.7765 60.7702 88.7765 60.5435C88.7765 60.2502 88.6831 60.0035 88.4965 59.8035C88.3231 59.5901 88.0831 59.4168 87.7765 59.2835C87.4831 59.1501 87.1298 59.0368 86.7165 58.9435C86.3165 58.8501 85.8965 58.7635 85.4565 58.6835C85.1631 58.6301 84.8231 58.5701 84.4365 58.5035C84.0498 58.4235 83.6498 58.3235 83.2365 58.2035C82.8231 58.0701 82.4165 57.9035 82.0165 57.7035C81.6165 57.4902 81.2565 57.2301 80.9365 56.9235C80.6165 56.6035 80.3565 56.2301 80.1565 55.8035C79.9698 55.3635 79.8765 54.8501 79.8765 54.2635C79.8765 53.4101 80.0498 52.7035 80.3965 52.1435C80.7431 51.5701 81.1831 51.1235 81.7165 50.8035C82.2631 50.4701 82.8631 50.2368 83.5165 50.1035C84.1831 49.9701 84.8231 49.9035 85.4365 49.9035C86.0498 49.9035 86.5965 49.9435 87.0765 50.0235C87.5565 50.1035 88.0031 50.2235 88.4165 50.3835C88.8298 50.5302 89.2298 50.7235 89.6165 50.9635C90.0165 51.1901 90.4431 51.4635 90.8965 51.7835L89.3365 53.9835C88.6431 53.5035 87.9765 53.1368 87.3365 52.8835C86.6965 52.6302 86.0231 52.5035 85.3165 52.5035C85.0765 52.5035 84.8031 52.5368 84.4965 52.6035C84.1898 52.6568 83.8965 52.7502 83.6165 52.8835C83.3498 53.0168 83.1231 53.1901 82.9365 53.4035C82.7631 53.6035 82.6765 53.8501 82.6765 54.1435C82.6765 54.4368 82.7831 54.6835 82.9965 54.8835C83.2098 55.0835 83.4831 55.2502 83.8165 55.3835C84.1498 55.5168 84.5165 55.6302 84.9165 55.7235C85.3165 55.8168 85.7031 55.9101 86.0765 56.0035C86.3565 56.0701 86.6831 56.1368 87.0565 56.2035C87.4431 56.2702 87.8365 56.3635 88.2365 56.4835C88.6498 56.6035 89.0565 56.7635 89.4565 56.9635C89.8565 57.1635 90.2098 57.4235 90.5165 57.7435C90.8365 58.0502 91.0898 58.4368 91.2765 58.9035C91.4765 59.3568 91.5765 59.9102 91.5765 60.5635C91.5765 61.3235 91.4431 61.9835 91.1765 62.5435C90.9098 63.1035 90.5298 63.5701 90.0365 63.9435C89.5431 64.3035 88.9565 64.5768 88.2765 64.7635C87.5965 64.9501 86.8431 65.0435 86.0165 65.0435C85.2565 65.0435 84.5831 64.9835 83.9965 64.8635C83.4231 64.7568 82.8965 64.6101 82.4165 64.4235C81.9365 64.2235 81.4831 63.9902 81.0565 63.7235C80.6298 63.4568 80.1898 63.1635 79.7365 62.8435Z" fill="white"/>
<path d="M100.75 65.0435C99.7102 65.0435 98.7302 64.8435 97.8102 64.4435C96.8902 64.0435 96.0836 63.5035 95.3902 62.8235C94.7102 62.1301 94.1702 61.3235 93.7702 60.4035C93.3702 59.4835 93.1702 58.4968 93.1702 57.4435C93.1702 56.4035 93.3702 55.4235 93.7702 54.5035C94.1702 53.5701 94.7102 52.7635 95.3902 52.0835C96.0836 51.3901 96.8902 50.8435 97.8102 50.4435C98.7302 50.0435 99.7102 49.8435 100.75 49.8435C101.804 49.8435 102.79 50.0435 103.71 50.4435C104.63 50.8435 105.43 51.3901 106.11 52.0835C106.804 52.7635 107.35 53.5701 107.75 54.5035C108.15 55.4235 108.35 56.4035 108.35 57.4435C108.35 58.4968 108.15 59.4835 107.75 60.4035C107.35 61.3235 106.804 62.1301 106.11 62.8235C105.43 63.5035 104.63 64.0435 103.71 64.4435C102.79 64.8435 101.804 65.0435 100.75 65.0435ZM100.75 52.4635C100.084 52.4635 99.4569 52.6035 98.8702 52.8835C98.2969 53.1502 97.7902 53.5101 97.3502 53.9635C96.9236 54.4168 96.5836 54.9502 96.3302 55.5635C96.0769 56.1635 95.9502 56.7901 95.9502 57.4435C95.9502 58.1101 96.0769 58.7435 96.3302 59.3435C96.5836 59.9435 96.9236 60.4768 97.3502 60.9435C97.7902 61.3968 98.2969 61.7635 98.8702 62.0435C99.4569 62.3102 100.084 62.4435 100.75 62.4435C101.417 62.4435 102.037 62.3102 102.61 62.0435C103.197 61.7635 103.704 61.3968 104.13 60.9435C104.57 60.4768 104.917 59.9435 105.17 59.3435C105.424 58.7435 105.55 58.1101 105.55 57.4435C105.55 56.7901 105.424 56.1635 105.17 55.5635C104.917 54.9502 104.57 54.4168 104.13 53.9635C103.704 53.5101 103.197 53.1502 102.61 52.8835C102.037 52.6035 101.417 52.4635 100.75 52.4635Z" fill="white"/>
<path d="M113.624 52.6235V56.2235H120.684V58.8035H113.624V64.7635H110.824V50.1235H121.584V52.6235H113.624Z" fill="white"/>
<path d="M134.391 52.6035H130.211V64.7635H127.411V52.6035H123.211V50.1235H134.391V52.6035Z" fill="white"/>
<path d="M154.333 50.1435L148.873 64.7635H148.593L144.633 56.2435L140.633 64.7835H140.373L134.973 50.1435H137.953L140.813 58.1635L144.533 50.1435H144.713L148.433 58.1835L151.353 50.1435H154.333Z" fill="white"/>
<path d="M152.626 64.7635L160.106 50.1435H160.386L167.866 64.7635H164.826L163.686 62.4635H156.786L155.666 64.7635H152.626ZM158.146 60.0235H162.326L160.246 55.6035L158.146 60.0235Z" fill="white"/>
<path d="M171.593 64.7635H168.813V50.1235H175.453C176.199 50.1235 176.879 50.2501 177.493 50.5035C178.119 50.7435 178.653 51.0901 179.093 51.5435C179.533 51.9835 179.873 52.5168 180.113 53.1435C180.366 53.7568 180.493 54.4301 180.493 55.1635C180.493 56.2701 180.213 57.2368 179.653 58.0635C179.106 58.8902 178.373 59.4835 177.453 59.8435C178.693 61.4701 179.913 63.1101 181.113 64.7635H177.773C177.186 64.0035 176.613 63.2368 176.053 62.4635C175.493 61.6901 174.933 60.9035 174.373 60.1035H171.593V64.7635ZM171.593 57.6235H175.453C175.706 57.6235 175.966 57.5768 176.233 57.4835C176.513 57.3768 176.759 57.2235 176.973 57.0235C177.186 56.8101 177.359 56.5501 177.493 56.2435C177.639 55.9368 177.713 55.5768 177.713 55.1635C177.713 54.9501 177.686 54.6968 177.633 54.4035C177.579 54.1102 177.473 53.8302 177.313 53.5635C177.153 53.2968 176.926 53.0702 176.633 52.8835C176.339 52.6968 175.946 52.6035 175.453 52.6035H171.593V57.6235Z" fill="white"/>
<path d="M185.987 52.6035V56.2635H193.067V58.8035H185.987V62.2435H193.967V64.7635H183.207V50.1235H193.967V52.6035H185.987Z" fill="white"/>
</svg>
