<svg width="201" height="83" viewBox="0 0 201 83" fill="none" xmlns="http://www.w3.org/2000/svg">
<path d="M33.9502 67.2556V63.1606H30.4664V68.2556H32.9502C33.5025 68.2556 33.9502 67.8079 33.9502 67.2556Z" fill="url(#paint0_linear_7_311)"/>
<path d="M42.0119 67.2556V63.1606H45.1644V68.2556H43.0119C42.4596 68.2556 42.0119 67.8079 42.0119 67.2556Z" fill="url(#paint1_linear_7_311)"/>
<path d="M57.2269 0.393509C65.5111 0.393588 72.2269 7.10929 72.2269 15.3935V38.0146L69.4437 40.7841H59.8401C51.9222 40.8248 45.5159 47.2854 45.5159 55.249C45.516 60.9309 48.7781 65.8462 53.5228 68.2119C53.0943 68.2393 52.6623 68.2558 52.2269 68.2558H42.0218V68.2539H43.6526L42.011 66.6543L41.8441 38.7705H41.8069C41.9283 38.6722 42.0393 38.5598 42.136 38.4335L56.2513 20.0097C57.2593 18.694 56.3217 16.7941 54.6644 16.7939H50.6722C50.0632 16.794 49.4871 17.0714 49.1077 17.5478L38.7718 30.5253C38.3673 31.0332 37.5938 31.027 37.1976 30.5126L27.2278 17.5732C26.8493 17.0818 26.2642 16.794 25.6439 16.7939H21.346C19.6966 16.7939 18.7558 18.6779 19.7474 19.996L33.6077 38.4199C33.7074 38.5524 33.824 38.6682 33.9505 38.7705V66.6767L32.3372 68.2558H19.6722C11.388 68.2558 4.67231 61.54 4.67218 53.2558V10.3935C4.67218 4.87066 9.14933 0.393509 14.6722 0.393509H57.2269Z" fill="url(#paint2_linear_7_311)"/>
<ellipse cx="61.1051" cy="55.2487" rx="9.28875" ry="9.33103" fill="#4A3B8A"/>
<ellipse cx="69.412" cy="37.9561" rx="2.81477" ry="2.82759" fill="url(#paint3_linear_7_311)"/>
<path d="M120.385 1.38151C119.414 2.97617 118.288 4.79617 117.005 6.84151C115.757 8.88684 114.474 10.9842 113.157 13.1335C111.84 15.2482 110.54 17.3455 109.257 19.4255C107.974 21.4708 106.848 23.3255 105.877 24.9895V39.3935H98.5971V24.9895C96.3437 21.0375 93.9517 17.1028 91.4211 13.1855C88.8904 9.26817 86.4811 5.33351 84.1931 1.38151H92.6691C94.2291 3.98151 95.8237 6.66817 97.4531 9.44151C99.0824 12.2148 100.677 14.9015 102.237 17.5015C103 16.2882 103.797 14.9882 104.629 13.6015C105.461 12.2148 106.293 10.8282 107.125 9.44151C107.957 8.02017 108.772 6.63351 109.569 5.28151C110.401 3.89484 111.181 2.59484 111.909 1.38151H120.385ZM159.658 32.7375V39.4455H140.73C137.194 39.4455 134.126 38.9428 131.526 37.9375C128.961 36.8975 126.829 35.5108 125.13 33.7775C123.431 32.0095 122.166 29.9468 121.334 27.5895C120.537 25.2322 120.138 22.7188 120.138 20.0495C120.138 17.3802 120.641 14.8668 121.646 12.5095C122.686 10.1522 124.073 8.10684 125.806 6.37351C127.574 4.60551 129.619 3.21884 131.942 2.21351C134.299 1.17351 136.813 0.653506 139.482 0.653506C142.151 0.653506 144.665 1.17351 147.022 2.21351C149.379 3.21884 151.425 4.60551 153.158 6.37351C154.926 8.10684 156.313 10.1522 157.318 12.5095C158.358 14.8668 158.878 17.3802 158.878 20.0495C158.878 21.1935 158.739 22.3722 158.462 23.5855C158.219 24.7988 157.803 25.9775 157.214 27.1215C156.625 28.2655 155.862 29.3228 154.926 30.2935C154.025 31.2642 152.898 32.0788 151.546 32.7375H159.658ZM127.366 20.0495C127.366 21.7135 127.678 23.2908 128.302 24.7815C128.961 26.2722 129.827 27.5895 130.902 28.7335C132.011 29.8428 133.294 30.7268 134.75 31.3855C136.241 32.0442 137.818 32.3735 139.482 32.3735C141.146 32.3735 142.706 32.0442 144.162 31.3855C145.653 30.7268 146.935 29.8428 148.01 28.7335C149.119 27.5895 149.986 26.2722 150.61 24.7815C151.269 23.2908 151.598 21.7135 151.598 20.0495C151.598 18.3855 151.269 16.8082 150.61 15.3175C149.986 13.7922 149.119 12.4748 148.01 11.3655C146.935 10.2562 145.653 9.37217 144.162 8.71351C142.706 8.05484 141.146 7.72551 139.482 7.72551C137.818 7.72551 136.241 8.05484 134.75 8.71351C133.294 9.37217 132.011 10.2562 130.902 11.3655C129.827 12.4748 128.961 13.7922 128.302 15.3175C127.678 16.8082 127.366 18.3855 127.366 20.0495ZM172.302 39.3935H165.074V1.32951H182.338C184.279 1.32951 186.047 1.65884 187.642 2.31751C189.271 2.94151 190.658 3.84284 191.802 5.02151C192.946 6.16551 193.83 7.55217 194.454 9.18151C195.112 10.7762 195.442 12.5268 195.442 14.4335C195.442 17.3108 194.714 19.8242 193.258 21.9735C191.836 24.1228 189.93 25.6655 187.538 26.6015C190.762 30.8308 193.934 35.0948 197.054 39.3935H188.37C186.844 37.4175 185.354 35.4242 183.898 33.4135C182.442 31.4028 180.986 29.3575 179.53 27.2775H172.302V39.3935ZM172.302 20.8295H182.338C182.996 20.8295 183.672 20.7082 184.366 20.4655C185.094 20.1882 185.735 19.7895 186.29 19.2695C186.844 18.7148 187.295 18.0388 187.642 17.2415C188.023 16.4442 188.214 15.5082 188.214 14.4335C188.214 13.8788 188.144 13.2202 188.006 12.4575C187.867 11.6948 187.59 10.9668 187.174 10.2735C186.758 9.58017 186.168 8.99084 185.406 8.50551C184.643 8.02017 183.62 7.77751 182.338 7.77751H172.302V20.8295Z" fill="#4A3B8A"/>
<path d="M83.7365 62.8435L85.2565 60.6035C85.9898 61.1102 86.7431 61.5502 87.5165 61.9235C88.3031 62.2835 89.1231 62.4635 89.9765 62.4635C90.4298 62.4635 90.8298 62.4102 91.1765 62.3035C91.5231 62.1835 91.8165 62.0368 92.0565 61.8635C92.2965 61.6768 92.4765 61.4702 92.5965 61.2435C92.7165 61.0035 92.7765 60.7702 92.7765 60.5435C92.7765 60.2502 92.6831 60.0035 92.4965 59.8035C92.3231 59.5902 92.0831 59.4168 91.7765 59.2835C91.4831 59.1502 91.1298 59.0368 90.7165 58.9435C90.3165 58.8502 89.8965 58.7635 89.4565 58.6835C89.1631 58.6302 88.8231 58.5702 88.4365 58.5035C88.0498 58.4235 87.6498 58.3235 87.2365 58.2035C86.8231 58.0702 86.4165 57.9035 86.0165 57.7035C85.6165 57.4902 85.2565 57.2302 84.9365 56.9235C84.6165 56.6035 84.3565 56.2302 84.1565 55.8035C83.9698 55.3635 83.8765 54.8502 83.8765 54.2635C83.8765 53.4102 84.0498 52.7035 84.3965 52.1435C84.7431 51.5702 85.1831 51.1235 85.7165 50.8035C86.2631 50.4702 86.8631 50.2368 87.5165 50.1035C88.1831 49.9702 88.8231 49.9035 89.4365 49.9035C90.0498 49.9035 90.5965 49.9435 91.0765 50.0235C91.5565 50.1035 92.0031 50.2235 92.4165 50.3835C92.8298 50.5302 93.2298 50.7235 93.6165 50.9635C94.0165 51.1902 94.4431 51.4635 94.8965 51.7835L93.3365 53.9835C92.6431 53.5035 91.9765 53.1368 91.3365 52.8835C90.6965 52.6302 90.0231 52.5035 89.3165 52.5035C89.0765 52.5035 88.8031 52.5368 88.4965 52.6035C88.1898 52.6568 87.8965 52.7502 87.6165 52.8835C87.3498 53.0168 87.1231 53.1902 86.9365 53.4035C86.7631 53.6035 86.6765 53.8502 86.6765 54.1435C86.6765 54.4368 86.7831 54.6835 86.9965 54.8835C87.2098 55.0835 87.4831 55.2502 87.8165 55.3835C88.1498 55.5168 88.5165 55.6302 88.9165 55.7235C89.3165 55.8168 89.7031 55.9102 90.0765 56.0035C90.3565 56.0702 90.6831 56.1368 91.0565 56.2035C91.4431 56.2702 91.8365 56.3635 92.2365 56.4835C92.6498 56.6035 93.0565 56.7635 93.4565 56.9635C93.8565 57.1635 94.2098 57.4235 94.5165 57.7435C94.8365 58.0502 95.0898 58.4368 95.2765 58.9035C95.4765 59.3568 95.5765 59.9102 95.5765 60.5635C95.5765 61.3235 95.4431 61.9835 95.1765 62.5435C94.9098 63.1035 94.5298 63.5702 94.0365 63.9435C93.5431 64.3035 92.9565 64.5768 92.2765 64.7635C91.5965 64.9502 90.8431 65.0435 90.0165 65.0435C89.2565 65.0435 88.5831 64.9835 87.9965 64.8635C87.4231 64.7568 86.8965 64.6102 86.4165 64.4235C85.9365 64.2235 85.4831 63.9902 85.0565 63.7235C84.6298 63.4568 84.1898 63.1635 83.7365 62.8435ZM104.75 65.0435C103.71 65.0435 102.73 64.8435 101.81 64.4435C100.89 64.0435 100.084 63.5035 99.3902 62.8235C98.7102 62.1302 98.1702 61.3235 97.7702 60.4035C97.3702 59.4835 97.1702 58.4968 97.1702 57.4435C97.1702 56.4035 97.3702 55.4235 97.7702 54.5035C98.1702 53.5702 98.7102 52.7635 99.3902 52.0835C100.084 51.3902 100.89 50.8435 101.81 50.4435C102.73 50.0435 103.71 49.8435 104.75 49.8435C105.804 49.8435 106.79 50.0435 107.71 50.4435C108.63 50.8435 109.43 51.3902 110.11 52.0835C110.804 52.7635 111.35 53.5702 111.75 54.5035C112.15 55.4235 112.35 56.4035 112.35 57.4435C112.35 58.4968 112.15 59.4835 111.75 60.4035C111.35 61.3235 110.804 62.1302 110.11 62.8235C109.43 63.5035 108.63 64.0435 107.71 64.4435C106.79 64.8435 105.804 65.0435 104.75 65.0435ZM104.75 52.4635C104.084 52.4635 103.457 52.6035 102.87 52.8835C102.297 53.1502 101.79 53.5102 101.35 53.9635C100.924 54.4168 100.584 54.9502 100.33 55.5635C100.077 56.1635 99.9502 56.7902 99.9502 57.4435C99.9502 58.1102 100.077 58.7435 100.33 59.3435C100.584 59.9435 100.924 60.4768 101.35 60.9435C101.79 61.3968 102.297 61.7635 102.87 62.0435C103.457 62.3102 104.084 62.4435 104.75 62.4435C105.417 62.4435 106.037 62.3102 106.61 62.0435C107.197 61.7635 107.704 61.3968 108.13 60.9435C108.57 60.4768 108.917 59.9435 109.17 59.3435C109.424 58.7435 109.55 58.1102 109.55 57.4435C109.55 56.7902 109.424 56.1635 109.17 55.5635C108.917 54.9502 108.57 54.4168 108.13 53.9635C107.704 53.5102 107.197 53.1502 106.61 52.8835C106.037 52.6035 105.417 52.4635 104.75 52.4635ZM117.624 52.6235V56.2235H124.684V58.8035H117.624V64.7635H114.824V50.1235H125.584V52.6235H117.624ZM138.391 52.6035H134.211V64.7635H131.411V52.6035H127.211V50.1235H138.391V52.6035ZM158.333 50.1435L152.873 64.7635H152.593L148.633 56.2435L144.633 64.7835H144.373L138.973 50.1435H141.953L144.813 58.1635L148.533 50.1435H148.713L152.433 58.1835L155.353 50.1435H158.333ZM156.626 64.7635L164.106 50.1435H164.386L171.866 64.7635H168.826L167.686 62.4635H160.786L159.666 64.7635H156.626ZM162.146 60.0235H166.326L164.246 55.6035L162.146 60.0235ZM175.593 64.7635H172.813V50.1235H179.453C180.199 50.1235 180.879 50.2502 181.493 50.5035C182.119 50.7435 182.653 51.0902 183.093 51.5435C183.533 51.9835 183.873 52.5168 184.113 53.1435C184.366 53.7568 184.493 54.4302 184.493 55.1635C184.493 56.2702 184.213 57.2368 183.653 58.0635C183.106 58.8902 182.373 59.4835 181.453 59.8435C182.693 61.4702 183.913 63.1102 185.113 64.7635H181.773C181.186 64.0035 180.613 63.2368 180.053 62.4635C179.493 61.6902 178.933 60.9035 178.373 60.1035H175.593V64.7635ZM175.593 57.6235H179.453C179.706 57.6235 179.966 57.5768 180.233 57.4835C180.513 57.3768 180.759 57.2235 180.973 57.0235C181.186 56.8102 181.359 56.5502 181.493 56.2435C181.639 55.9368 181.713 55.5768 181.713 55.1635C181.713 54.9502 181.686 54.6968 181.633 54.4035C181.579 54.1102 181.473 53.8302 181.313 53.5635C181.153 53.2968 180.926 53.0702 180.633 52.8835C180.339 52.6968 179.946 52.6035 179.453 52.6035H175.593V57.6235ZM189.987 52.6035V56.2635H197.067V58.8035H189.987V62.2435H197.967V64.7635H187.207V50.1235H197.967V52.6035H189.987Z" fill="#4A3B8A"/>
<defs>
<linearGradient id="paint0_linear_7_311" x1="36.3343" y1="65.7081" x2="55.304" y2="65.7081" gradientUnits="userSpaceOnUse">
<stop stop-color="#4A3B8A"/>
<stop offset="1" stop-color="#F56500"/>
</linearGradient>
<linearGradient id="paint1_linear_7_311" x1="37.8135" y1="61.9807" x2="71.7327" y2="61.9307" gradientUnits="userSpaceOnUse">
<stop stop-color="#4A3B8A"/>
<stop offset="1" stop-color="#F56500"/>
</linearGradient>
<linearGradient id="paint2_linear_7_311" x1="37.5348" y1="34.3245" x2="72.2267" y2="34.3245" gradientUnits="userSpaceOnUse">
<stop stop-color="#4A3B8A"/>
<stop offset="1" stop-color="#F56500"/>
</linearGradient>
<linearGradient id="paint3_linear_7_311" x1="37.9747" y1="37.9561" x2="72.2267" y2="37.9561" gradientUnits="userSpaceOnUse">
<stop stop-color="#4A3B8A"/>
<stop offset="1" stop-color="#F56500"/>
</linearGradient>
</defs>
</svg>
