<svg width="201" height="76" viewBox="0 0 201 76" fill="none" xmlns="http://www.w3.org/2000/svg">
<g filter="url(#filter0_d_15_331)">
<path d="M119.402 0.978903C118.432 2.57357 117.305 4.39357 116.022 6.4389C114.774 8.48423 113.492 10.5816 112.174 12.7309C110.857 14.8456 109.557 16.9429 108.274 19.0229C106.992 21.0682 105.865 22.9229 104.894 24.5869V38.9909H97.6144V24.5869C95.361 20.6349 92.969 16.7002 90.4384 12.7829C87.9077 8.86557 85.4984 4.9309 83.2104 0.978903H91.6864C93.2464 3.5789 94.841 6.26557 96.4704 9.0389C98.0997 11.8122 99.6944 14.4989 101.254 17.0989C102.017 15.8856 102.814 14.5856 103.646 13.1989C104.478 11.8122 105.31 10.4256 106.142 9.0389C106.974 7.61757 107.789 6.2309 108.586 4.8789C109.418 3.49224 110.198 2.19224 110.926 0.978903H119.402Z" fill="white"/>
<path d="M158.675 32.3349V39.0429H139.747C136.211 39.0429 133.143 38.5402 130.543 37.5349C127.978 36.4949 125.846 35.1082 124.147 33.3749C122.449 31.6069 121.183 29.5442 120.351 27.1869C119.554 24.8296 119.155 22.3162 119.155 19.6469C119.155 16.9776 119.658 14.4642 120.663 12.1069C121.703 9.74957 123.09 7.70423 124.823 5.9709C126.591 4.2029 128.637 2.81623 130.959 1.8109C133.317 0.770901 135.83 0.2509 138.499 0.2509C141.169 0.2509 143.682 0.770901 146.039 1.8109C148.397 2.81623 150.442 4.2029 152.175 5.9709C153.943 7.70423 155.33 9.74957 156.335 12.1069C157.375 14.4642 157.895 16.9776 157.895 19.6469C157.895 20.7909 157.757 21.9696 157.479 23.1829C157.237 24.3962 156.821 25.5749 156.231 26.7189C155.642 27.8629 154.879 28.9202 153.943 29.8909C153.042 30.8616 151.915 31.6762 150.563 32.3349H158.675ZM126.383 19.6469C126.383 21.3109 126.695 22.8882 127.319 24.3789C127.978 25.8696 128.845 27.1869 129.919 28.3309C131.029 29.4402 132.311 30.3242 133.767 30.9829C135.258 31.6416 136.835 31.9709 138.499 31.9709C140.163 31.9709 141.723 31.6416 143.179 30.9829C144.67 30.3242 145.953 29.4402 147.027 28.3309C148.137 27.1869 149.003 25.8696 149.627 24.3789C150.286 22.8882 150.615 21.3109 150.615 19.6469C150.615 17.9829 150.286 16.4056 149.627 14.9149C149.003 13.3896 148.137 12.0722 147.027 10.9629C145.953 9.85357 144.67 8.96957 143.179 8.3109C141.723 7.65224 140.163 7.3229 138.499 7.3229C136.835 7.3229 135.258 7.65224 133.767 8.3109C132.311 8.96957 131.029 9.85357 129.919 10.9629C128.845 12.0722 127.978 13.3896 127.319 14.9149C126.695 16.4056 126.383 17.9829 126.383 19.6469Z" fill="white"/>
<path d="M171.319 38.9909H164.091V0.926901H181.355C183.296 0.926901 185.064 1.25623 186.659 1.9149C188.288 2.5389 189.675 3.44024 190.819 4.6189C191.963 5.7629 192.847 7.14957 193.471 8.7789C194.13 10.3736 194.459 12.1242 194.459 14.0309C194.459 16.9082 193.731 19.4216 192.275 21.5709C190.854 23.7202 188.947 25.2629 186.555 26.1989C189.779 30.4282 192.951 34.6922 196.071 38.9909H187.387C185.862 37.0149 184.371 35.0216 182.915 33.0109C181.459 31.0002 180.003 28.9549 178.547 26.8749H171.319V38.9909ZM171.319 20.4269H181.355C182.014 20.4269 182.69 20.3056 183.383 20.0629C184.111 19.7856 184.752 19.3869 185.307 18.8669C185.862 18.3122 186.312 17.6362 186.659 16.8389C187.04 16.0416 187.231 15.1056 187.231 14.0309C187.231 13.4762 187.162 12.8176 187.023 12.0549C186.884 11.2922 186.607 10.5642 186.191 9.8709C185.775 9.17757 185.186 8.58823 184.423 8.1029C183.66 7.61757 182.638 7.3749 181.355 7.3749H171.319V20.4269Z" fill="white"/>
<path d="M82.7538 62.4409L84.2738 60.2009C85.0071 60.7075 85.7604 61.1475 86.5338 61.5209C87.3204 61.8809 88.1404 62.0609 88.9938 62.0609C89.4471 62.0609 89.8471 62.0075 90.1938 61.9009C90.5404 61.7809 90.8338 61.6342 91.0738 61.4609C91.3138 61.2742 91.4938 61.0675 91.6138 60.8409C91.7338 60.6009 91.7938 60.3675 91.7938 60.1409C91.7938 59.8475 91.7004 59.6009 91.5138 59.4009C91.3404 59.1875 91.1004 59.0142 90.7938 58.8809C90.5004 58.7475 90.1471 58.6342 89.7338 58.5409C89.3338 58.4475 88.9138 58.3609 88.4738 58.2809C88.1804 58.2275 87.8404 58.1675 87.4538 58.1009C87.0671 58.0209 86.6671 57.9209 86.2538 57.8009C85.8404 57.6675 85.4338 57.5009 85.0338 57.3009C84.6338 57.0875 84.2738 56.8275 83.9538 56.5209C83.6338 56.2009 83.3738 55.8275 83.1738 55.4009C82.9871 54.9609 82.8938 54.4475 82.8938 53.8609C82.8938 53.0075 83.0671 52.3009 83.4138 51.7409C83.7604 51.1675 84.2004 50.7209 84.7338 50.4009C85.2804 50.0675 85.8804 49.8342 86.5338 49.7009C87.2004 49.5675 87.8404 49.5009 88.4538 49.5009C89.0671 49.5009 89.6138 49.5409 90.0938 49.6209C90.5738 49.7009 91.0204 49.8209 91.4338 49.9809C91.8471 50.1275 92.2471 50.3209 92.6338 50.5609C93.0338 50.7875 93.4604 51.0609 93.9138 51.3809L92.3538 53.5809C91.6604 53.1009 90.9938 52.7342 90.3538 52.4809C89.7138 52.2275 89.0404 52.1009 88.3338 52.1009C88.0938 52.1009 87.8204 52.1342 87.5138 52.2009C87.2071 52.2542 86.9138 52.3475 86.6338 52.4809C86.3671 52.6142 86.1404 52.7875 85.9538 53.0009C85.7804 53.2009 85.6938 53.4475 85.6938 53.7409C85.6938 54.0342 85.8004 54.2809 86.0138 54.4809C86.2271 54.6809 86.5004 54.8475 86.8338 54.9809C87.1671 55.1142 87.5338 55.2275 87.9338 55.3209C88.3338 55.4142 88.7204 55.5075 89.0938 55.6009C89.3738 55.6675 89.7004 55.7342 90.0738 55.8009C90.4604 55.8675 90.8538 55.9609 91.2538 56.0809C91.6671 56.2009 92.0738 56.3609 92.4738 56.5609C92.8738 56.7609 93.2271 57.0209 93.5338 57.3409C93.8538 57.6475 94.1071 58.0342 94.2938 58.5009C94.4938 58.9542 94.5938 59.5075 94.5938 60.1609C94.5938 60.9209 94.4604 61.5809 94.1938 62.1409C93.9271 62.7009 93.5471 63.1675 93.0538 63.5409C92.5604 63.9009 91.9738 64.1742 91.2938 64.3609C90.6138 64.5475 89.8604 64.6409 89.0338 64.6409C88.2738 64.6409 87.6004 64.5809 87.0138 64.4609C86.4404 64.3542 85.9138 64.2075 85.4338 64.0209C84.9538 63.8209 84.5004 63.5875 84.0738 63.3209C83.6471 63.0542 83.2071 62.7609 82.7538 62.4409Z" fill="white"/>
<path d="M103.768 64.6409C102.728 64.6409 101.748 64.4409 100.828 64.0409C99.9075 63.6409 99.1008 63.1009 98.4075 62.4209C97.7275 61.7275 97.1875 60.9209 96.7875 60.0009C96.3875 59.0809 96.1875 58.0942 96.1875 57.0409C96.1875 56.0009 96.3875 55.0209 96.7875 54.1009C97.1875 53.1675 97.7275 52.3609 98.4075 51.6809C99.1008 50.9875 99.9075 50.4409 100.828 50.0409C101.748 49.6409 102.728 49.4409 103.768 49.4409C104.821 49.4409 105.808 49.6409 106.728 50.0409C107.648 50.4409 108.448 50.9875 109.128 51.6809C109.821 52.3609 110.368 53.1675 110.768 54.1009C111.168 55.0209 111.368 56.0009 111.368 57.0409C111.368 58.0942 111.168 59.0809 110.768 60.0009C110.368 60.9209 109.821 61.7275 109.128 62.4209C108.448 63.1009 107.648 63.6409 106.728 64.0409C105.808 64.4409 104.821 64.6409 103.768 64.6409ZM103.768 52.0609C103.101 52.0609 102.474 52.2009 101.888 52.4809C101.314 52.7475 100.808 53.1075 100.368 53.5609C99.9408 54.0142 99.6008 54.5475 99.3475 55.1609C99.0942 55.7609 98.9675 56.3875 98.9675 57.0409C98.9675 57.7075 99.0942 58.3409 99.3475 58.9409C99.6008 59.5409 99.9408 60.0742 100.368 60.5409C100.808 60.9942 101.314 61.3609 101.888 61.6409C102.474 61.9075 103.101 62.0409 103.768 62.0409C104.434 62.0409 105.054 61.9075 105.628 61.6409C106.214 61.3609 106.721 60.9942 107.148 60.5409C107.588 60.0742 107.934 59.5409 108.188 58.9409C108.441 58.3409 108.568 57.7075 108.568 57.0409C108.568 56.3875 108.441 55.7609 108.188 55.1609C107.934 54.5475 107.588 54.0142 107.148 53.5609C106.721 53.1075 106.214 52.7475 105.628 52.4809C105.054 52.2009 104.434 52.0609 103.768 52.0609Z" fill="white"/>
<path d="M116.642 52.2209V55.8209H123.702V58.4009H116.642V64.3609H113.842V49.7209H124.602V52.2209H116.642Z" fill="white"/>
<path d="M137.408 52.2009H133.228V64.3609H130.428V52.2009H126.228V49.7209H137.408V52.2009Z" fill="white"/>
<path d="M157.35 49.7409L151.89 64.3609H151.61L147.65 55.8409L143.65 64.3809H143.39L137.99 49.7409H140.97L143.83 57.7609L147.55 49.7409H147.73L151.45 57.7809L154.37 49.7409H157.35Z" fill="white"/>
<path d="M155.643 64.3609L163.123 49.7409H163.403L170.883 64.3609H167.843L166.703 62.0609H159.803L158.683 64.3609H155.643ZM161.163 59.6209H165.343L163.263 55.2009L161.163 59.6209Z" fill="white"/>
<path d="M174.61 64.3609H171.83V49.7209H178.47C179.217 49.7209 179.897 49.8475 180.51 50.1009C181.137 50.3409 181.67 50.6875 182.11 51.1409C182.55 51.5809 182.89 52.1142 183.13 52.7409C183.383 53.3542 183.51 54.0275 183.51 54.7609C183.51 55.8675 183.23 56.8342 182.67 57.6609C182.123 58.4875 181.39 59.0809 180.47 59.4409C181.71 61.0675 182.93 62.7075 184.13 64.3609H180.79C180.203 63.6009 179.63 62.8342 179.07 62.0609C178.51 61.2875 177.95 60.5009 177.39 59.7009H174.61V64.3609ZM174.61 57.2209H178.47C178.723 57.2209 178.983 57.1742 179.25 57.0809C179.53 56.9742 179.777 56.8209 179.99 56.6209C180.203 56.4075 180.377 56.1475 180.51 55.8409C180.657 55.5342 180.73 55.1742 180.73 54.7609C180.73 54.5475 180.703 54.2942 180.65 54.0009C180.597 53.7075 180.49 53.4275 180.33 53.1609C180.17 52.8942 179.943 52.6675 179.65 52.4809C179.357 52.2942 178.963 52.2009 178.47 52.2009H174.61V57.2209Z" fill="white"/>
<path d="M189.004 52.2009V55.8609H196.084V58.4009H189.004V61.8409H196.984V64.3609H186.224V49.7209H196.984V52.2009H189.004Z" fill="white"/>
<path fill-rule="evenodd" clip-rule="evenodd" d="M63.5 0C68.1944 0 72 3.80558 72 8.5V37.6977L69.1982 40.4724H63.122L63.1259 40.4752C63.037 40.4736 62.9479 40.4724 62.8586 40.4724C54.8536 40.4724 48.3644 46.9616 48.3644 54.9667C48.3644 60.695 51.6877 65.6465 56.5113 68H12.5C7.80558 68 4 64.1944 4 59.5V5.66667C4 2.53705 6.53705 9.12698e-08 9.66667 0H63.5ZM19.4522 13.0322C18.5164 13.0322 17.9837 14.1024 18.5479 14.849L33.7959 35.026C33.8378 35.0813 33.8856 35.1309 33.9359 35.1771V57.0391C33.9359 57.665 34.4433 58.1724 35.0693 58.1724H40.9219C41.5512 58.1724 42.0601 57.6596 42.0552 57.0302L41.882 35.0448C41.885 35.0409 41.889 35.0376 41.892 35.0337L57.4205 14.8567C57.994 14.1115 57.4632 13.0324 56.5229 13.0322H50.3029C49.9586 13.0323 49.633 13.189 49.418 13.4578L38.3984 27.231C38.1692 27.5172 37.7326 27.5137 37.508 27.2238L26.8653 13.4722C26.6507 13.1948 26.3195 13.0322 25.9688 13.0322H19.4522Z" fill="#4A3B8A"/>
<path d="M71.9893 54.9657C71.9893 59.6601 68.1837 63.4657 63.4893 63.4657C58.7949 63.4657 54.9893 59.6601 54.9893 54.9657C54.9893 50.2713 58.7949 46.4657 63.4893 46.4657C68.1837 46.4657 71.9893 50.2713 71.9893 54.9657Z" fill="#F56500"/>
<path d="M72 37.6389C72 39.2037 70.7315 40.4723 69.1667 40.4723C67.6019 40.4723 66.3333 39.2037 66.3333 37.6389C66.3333 36.0741 67.6019 34.8056 69.1667 34.8056C70.7315 34.8056 72 36.0741 72 37.6389Z" fill="#4A3B8A"/>
</g>
<defs>
<filter id="filter0_d_15_331" x="0" y="0" width="200.984" height="76" filterUnits="userSpaceOnUse" color-interpolation-filters="sRGB">
<feFlood flood-opacity="0" result="BackgroundImageFix"/>
<feColorMatrix in="SourceAlpha" type="matrix" values="0 0 0 0 0 0 0 0 0 0 0 0 0 0 0 0 0 0 127 0" result="hardAlpha"/>
<feOffset dy="4"/>
<feGaussianBlur stdDeviation="2"/>
<feComposite in2="hardAlpha" operator="out"/>
<feColorMatrix type="matrix" values="0 0 0 0 0 0 0 0 0 0 0 0 0 0 0 0 0 0 0.5 0"/>
<feBlend mode="normal" in2="BackgroundImageFix" result="effect1_dropShadow_15_331"/>
<feBlend mode="normal" in="SourceGraphic" in2="effect1_dropShadow_15_331" result="shape"/>
</filter>
</defs>
</svg>
